<?xml version="1.0" encoding="UTF-8"?>
<!DOCTYPE svg PUBLIC "-//W3C//DTD SVG 1.1//EN" "http://www.w3.org/Graphics/SVG/1.1/DTD/svg11.dtd">
<svg xmlns="http://www.w3.org/2000/svg" version="1.1" width="602px" height="394px" style="shape-rendering:geometricPrecision; text-rendering:geometricPrecision; image-rendering:optimizeQuality; fill-rule:evenodd; clip-rule:evenodd" xmlns:xlink="http://www.w3.org/1999/xlink">
<g><path fill="#ffffff" d="M 221.5,70.5 C 169.5,70.5 117.5,70.5 65.5,70.5C 65.5,53.1667 65.5,35.8333 65.5,18.5C 117.5,18.5 169.5,18.5 221.5,18.5C 221.5,35.8333 221.5,53.1667 221.5,70.5 Z"/></g>
<g><path fill="#ffffff" d="M 534.5,174.5 C 534.167,174.5 533.833,174.5 533.5,174.5C 464.167,174.5 394.833,174.5 325.5,174.5C 325.5,122.5 325.5,70.5 325.5,18.5C 412.167,18.5 498.833,18.5 585.5,18.5C 585.5,35.8333 585.5,53.1667 585.5,70.5C 516.167,70.5 446.833,70.5 377.5,70.5C 377.5,87.8333 377.5,105.167 377.5,122.5C 429.833,122.5 482.167,122.5 534.5,122.5C 534.5,139.833 534.5,157.167 534.5,174.5 Z"/></g>
<g><path fill="#ffffff" d="M 65.5,70.5 C 65.5,87.8333 65.5,105.167 65.5,122.5C 48.1667,122.5 30.8333,122.5 13.5,122.5C 13.5,105.167 13.5,87.8333 13.5,70.5C 30.8333,70.5 48.1667,70.5 65.5,70.5 Z"/></g>
<g><path fill="#ffffff" d="M 221.5,70.5 C 238.833,70.5 256.167,70.5 273.5,70.5C 273.5,105.167 273.5,139.833 273.5,174.5C 256.167,174.5 238.833,174.5 221.5,174.5C 221.5,139.833 221.5,105.167 221.5,70.5 Z"/></g>
<g><path fill="#ffffff" d="M 221.5,174.5 C 221.5,191.833 221.5,209.167 221.5,226.5C 186.833,226.5 152.167,226.5 117.5,226.5C 117.5,209.167 117.5,191.833 117.5,174.5C 152.167,174.5 186.833,174.5 221.5,174.5 Z"/></g>
<g><path fill="#ffffff" d="M 533.5,174.5 C 533.833,174.5 534.167,174.5 534.5,174.5C 551.5,174.5 568.5,174.5 585.5,174.5C 585.5,226.5 585.5,278.5 585.5,330.5C 568.167,330.5 550.833,330.5 533.5,330.5C 533.5,278.5 533.5,226.5 533.5,174.5 Z"/></g>
<g><path fill="#ffffff" d="M 117.5,226.5 C 117.5,243.833 117.5,261.167 117.5,278.5C 100.167,278.5 82.8333,278.5 65.5,278.5C 48.1667,278.5 30.8333,278.5 13.5,278.5C 30.6586,277.503 47.992,277.17 65.5,277.5C 65.5,260.5 65.5,243.5 65.5,226.5C 82.8333,226.5 100.167,226.5 117.5,226.5 Z"/></g>
<g><path fill="#ffffff" d="M 13.5,278.5 C 30.8333,278.5 48.1667,278.5 65.5,278.5C 65.5,295.833 65.5,313.167 65.5,330.5C 117.5,330.5 169.5,330.5 221.5,330.5C 221.5,312.833 221.5,295.167 221.5,277.5C 238.833,277.5 256.167,277.5 273.5,277.5C 273.5,312.5 273.5,347.5 273.5,382.5C 186.833,382.5 100.167,382.5 13.5,382.5C 13.5,347.833 13.5,313.167 13.5,278.5 Z"/></g>
<g><path fill="#ffffff" d="M 377.5,330.5 C 360.167,330.5 342.833,330.5 325.5,330.5C 325.5,313.167 325.5,295.833 325.5,278.5C 342.833,278.5 360.167,278.5 377.5,278.5C 377.5,295.833 377.5,313.167 377.5,330.5 Z"/></g>
<g><path fill="#ffffff" d="M 377.5,330.5 C 429.5,330.5 481.5,330.5 533.5,330.5C 533.5,347.833 533.5,365.167 533.5,382.5C 481.5,382.5 429.5,382.5 377.5,382.5C 377.5,365.167 377.5,347.833 377.5,330.5 Z"/></g>
</svg>
