<svg xmlns="http://www.w3.org/2000/svg" viewBox="0 -0.5 256 64" shape-rendering="crispEdges">
<metadata>Made with https://codepen.io/shshaw/pen/XbxvNj</metadata>
<path stroke="#ffffff" d="M217 0h2M241 0h3M217 1h1M219 1h1M222 1h1M241 1h4M217 2h1M221 2h1M224 2h5M241 2h5M1 3h1M12 3h3M202 3h1M211 3h9M223 3h1M229 3h1M242 3h5M0 4h1M2 4h12M35 4h1M45 4h1M170 4h2M177 4h2M200 4h4M211 4h9M243 4h5M0 5h13M27 5h1M29 5h1M33 5h11M45 5h2M66 5h1M87 5h3M99 5h2M170 5h9M197 5h2M200 5h5M211 5h9M221 5h1M234 5h2M244 5h5M0 6h14M16 6h15M35 6h11M65 6h4M70 6h19M99 6h1M101 6h1M111 6h6M130 6h1M138 6h1M140 6h1M161 6h4M173 6h1M175 6h1M196 6h4M201 6h4M211 6h9M222 6h1M231 6h2M234 6h3M245 6h5M253 6h2M6 7h1M8 7h6M16 7h9M26 7h4M38 7h1M40 7h7M65 7h24M99 7h11M111 7h6M121 7h5M129 7h22M161 7h1M163 7h1M165 7h19M195 7h6M202 7h2M211 7h1M213 7h1M215 7h1M217 7h1M219 7h5M230 7h4M235 7h2M246 7h5M252 7h1M254 7h1M6 8h1M10 8h5M17 8h13M39 8h4M46 8h1M65 8h25M97 8h29M130 8h29M161 8h4M174 8h17M194 8h8M203 8h2M211 8h2M214 8h3M218 8h2M229 8h6M247 8h5M253 8h1M7 9h4M12 9h2M23 9h1M25 9h1M27 9h3M41 9h2M46 9h1M70 9h5M83 9h1M85 9h1M87 9h4M100 9h1M102 9h1M104 9h1M106 9h10M117 9h8M131 9h1M143 9h3M147 9h1M149 9h9M175 9h4M180 9h1M182 9h6M190 9h1M194 9h9M205 9h1M211 9h1M213 9h1M215 9h1M217 9h1M219 9h1M229 9h7M248 9h4M253 9h1M10 10h4M24 10h7M41 10h2M83 10h8M100 10h6M111 10h2M114 10h4M122 10h1M124 10h1M143 10h8M153 10h6M176 10h7M186 10h3M190 10h1M194 10h9M205 10h1M211 10h9M229 10h7M249 10h2M252 10h1M11 11h4M27 11h4M41 11h2M88 11h4M111 11h7M123 11h3M142 11h4M149 11h3M155 11h4M176 11h3M181 11h3M188 11h3M194 11h8M203 11h2M208 11h2M211 11h9M221 11h2M229 11h6M248 11h1M251 11h1M253 11h1M11 12h4M27 12h4M41 12h2M88 12h4M110 12h3M116 12h2M125 12h1M141 12h4M150 12h2M157 12h2M176 12h2M182 12h2M189 12h2M194 12h3M198 12h3M208 12h2M221 12h2M230 12h4M247 12h1M249 12h2M252 12h1M254 12h2M11 13h2M14 13h1M28 13h3M41 13h2M89 13h2M110 13h3M141 13h3M176 13h2M195 13h2M198 13h2M208 13h15M247 13h2M253 13h1M255 13h1M208 14h15M253 14h3M208 15h15M7 16h2M64 16h4M69 16h27M119 16h1M132 16h1M137 16h1M152 16h1M179 16h2M7 17h2M50 17h1M55 17h2M64 17h1M79 17h2M95 17h1M119 17h1M131 17h1M152 17h1M180 17h2M196 17h2M202 17h1M229 17h2M235 17h2M7 18h2M50 18h2M54 18h2M59 18h1M64 18h1M66 18h12M79 18h2M82 18h12M95 18h1M114 18h2M118 18h1M120 18h1M123 18h2M130 18h2M137 18h1M151 18h2M177 18h1M181 18h1M194 18h2M198 18h1M201 18h1M204 18h2M227 18h2M231 18h1M234 18h1M237 18h2M7 19h2M51 19h1M54 19h2M62 19h1M64 19h1M66 19h1M77 19h1M79 19h2M82 19h1M93 19h1M95 19h1M97 19h6M106 19h4M114 19h1M116 19h3M120 19h3M124 19h1M129 19h2M137 19h2M147 19h1M150 19h2M157 19h1M162 19h4M169 19h4M177 19h2M181 19h2M193 19h1M198 19h1M201 19h1M206 19h1M213 19h6M226 19h1M231 19h1M234 19h1M239 19h1M246 19h3M250 19h2M6 20h4M19 20h1M29 20h1M43 20h1M51 20h2M54 20h4M61 20h2M64 20h1M66 20h1M69 20h2M73 20h2M77 20h1M79 20h2M82 20h1M90 20h2M93 20h1M95 20h1M97 20h6M105 20h2M108 20h2M115 20h1M117 20h1M119 20h1M121 20h1M123 20h1M129 20h2M138 20h1M150 20h3M161 20h6M168 20h6M178 20h4M183 20h2M193 20h1M199 20h2M206 20h1M212 20h1M219 20h1M226 20h1M232 20h2M239 20h1M245 20h1M252 20h1M5 21h1M10 21h1M18 21h3M42 21h3M50 21h3M54 21h4M61 21h1M64 21h1M66 21h1M70 21h4M77 21h1M79 21h2M82 21h1M89 21h2M93 21h1M95 21h1M97 21h2M101 21h2M104 21h3M108 21h2M115 21h2M119 21h1M122 21h2M129 21h2M138 21h3M147 21h1M150 21h4M157 21h1M161 21h2M165 21h2M168 21h2M172 21h2M180 21h1M182 21h5M193 21h1M196 21h2M206 21h1M211 21h1M213 21h2M220 21h1M226 21h1M229 21h2M239 21h1M244 21h1M246 21h2M253 21h1M4 22h1M11 22h1M18 22h11M30 22h1M32 22h13M50 22h9M60 22h2M64 22h1M66 22h1M71 22h2M77 22h1M79 22h2M82 22h1M85 22h1M88 22h2M93 22h1M95 22h1M97 22h2M104 22h2M108 22h2M114 22h2M118 22h3M123 22h2M129 22h3M139 22h2M147 22h1M151 22h4M156 22h2M165 22h2M172 22h2M181 22h3M185 22h3M194 22h1M196 22h1M205 22h1M211 22h1M213 22h1M220 22h1M227 22h1M229 22h1M238 22h1M244 22h1M246 22h1M253 22h1M0 23h2M3 23h2M7 23h2M11 23h5M19 23h10M31 23h13M50 23h4M58 23h4M64 23h1M66 23h1M70 23h4M77 23h1M79 23h2M82 23h1M85 23h4M93 23h1M95 23h1M97 23h2M104 23h10M116 23h7M125 23h2M130 23h2M139 23h3M147 23h1M149 23h8M163 23h4M170 23h4M181 23h2M187 23h2M194 23h1M205 23h1M211 23h1M214 23h4M220 23h1M227 23h1M238 23h1M244 23h1M247 23h4M253 23h1M0 24h1M2 24h3M7 24h2M11 24h5M18 24h13M33 24h12M51 24h2M54 24h4M59 24h3M64 24h1M66 24h1M69 24h2M73 24h2M77 24h1M79 24h2M82 24h1M86 24h2M93 24h1M95 24h1M97 24h2M104 24h8M114 24h2M118 24h3M123 24h2M131 24h3M140 24h2M146 24h5M152 24h5M164 24h2M170 24h3M182 24h2M188 24h2M195 24h1M204 24h1M211 24h1M213 24h1M218 24h1M220 24h1M228 24h1M237 24h1M244 24h1M246 24h1M251 24h1M253 24h1M4 25h1M11 25h1M18 25h3M42 25h3M50 25h3M54 25h4M59 25h3M64 25h1M66 25h1M77 25h1M79 25h2M82 25h1M93 25h1M95 25h1M97 25h2M101 25h2M108 25h2M115 25h2M119 25h1M122 25h2M132 25h3M140 25h2M146 25h1M148 25h4M154 25h3M163 25h2M170 25h2M182 25h2M189 25h2M195 25h1M204 25h1M211 25h1M213 25h1M218 25h1M220 25h1M228 25h1M237 25h1M244 25h1M246 25h1M251 25h1M253 25h1M5 26h1M10 26h1M19 26h1M43 26h1M49 26h2M54 26h4M61 26h2M64 26h1M66 26h12M79 26h2M82 26h12M95 26h1M97 26h6M108 26h2M115 26h1M117 26h1M119 26h1M121 26h1M123 26h1M133 26h3M140 26h2M147 26h2M150 26h2M153 26h4M163 26h2M170 26h2M183 26h2M190 26h1M195 26h1M204 26h1M211 26h1M213 26h1M218 26h1M220 26h1M228 26h1M237 26h1M244 26h1M246 26h1M251 26h1M253 26h1M6 27h4M49 27h2M52 27h8M61 27h2M64 27h1M79 27h2M95 27h1M97 27h6M108 27h2M114 27h1M116 27h3M120 27h3M124 27h1M134 27h2M139 27h1M147 27h2M151 27h1M154 27h1M156 27h2M184 27h2M195 27h1M204 27h1M211 27h1M214 27h5M220 27h1M228 27h1M237 27h1M244 27h1M246 27h6M253 27h1M7 28h2M49 28h1M52 28h8M62 28h1M65 28h14M81 28h14M114 28h2M118 28h1M120 28h1M123 28h2M133 28h3M138 28h2M147 28h3M155 28h3M163 28h2M170 28h2M185 28h2M196 28h1M203 28h1M212 28h2M218 28h2M229 28h1M236 28h1M245 28h2M251 28h2M7 29h2M49 29h2M52 29h8M61 29h2M67 29h1M76 29h1M83 29h1M92 29h1M119 29h1M132 29h3M138 29h1M148 29h2M155 29h2M163 29h2M170 29h2M186 29h2M197 29h6M230 29h6M7 30h2M52 30h2M55 30h5M61 30h1M65 30h14M81 30h14M119 30h1M133 30h1M137 30h1M148 30h3M154 30h3M7 31h2M52 31h3M56 31h4M132 31h1M138 31h1M149 31h7M5 32h6M37 32h2M5 33h1M10 33h1M33 33h1M36 33h1M38 33h1M204 33h3M5 34h1M10 34h1M27 34h5M34 34h1M38 34h1M203 34h4M5 35h1M10 35h1M26 35h1M32 35h1M36 35h9M53 35h1M202 35h5M241 35h3M5 36h1M10 36h1M36 36h9M52 36h4M77 36h2M84 36h2M201 36h5M210 36h1M220 36h1M242 36h1M244 36h12M0 37h6M10 37h6M20 37h2M34 37h1M36 37h6M43 37h2M52 37h1M54 37h2M57 37h2M77 37h9M155 37h2M166 37h3M189 37h1M200 37h5M209 37h14M225 37h2M228 37h1M238 37h1M243 37h13M0 38h1M15 38h1M19 38h3M23 38h2M33 38h1M36 38h9M51 38h4M56 38h4M80 38h1M82 38h1M91 38h4M115 38h1M117 38h1M125 38h1M139 38h6M154 38h1M156 38h1M167 38h24M199 38h5M210 38h11M225 38h9M235 38h5M242 38h14M0 39h1M15 39h1M19 39h2M22 39h4M32 39h5M38 39h1M40 39h1M42 39h1M44 39h1M52 39h2M55 39h6M72 39h19M92 39h1M94 39h1M105 39h22M130 39h5M139 39h6M146 39h11M167 39h17M185 39h6M193 39h2M198 39h5M209 39h7M217 39h1M226 39h11M238 39h2M242 39h6M249 39h1M0 40h1M15 40h1M21 40h6M36 40h2M39 40h3M43 40h2M51 40h2M54 40h8M65 40h17M91 40h4M97 40h29M130 40h16M147 40h12M166 40h24M193 40h1M195 40h1M198 40h4M209 40h1M213 40h4M226 40h13M241 40h5M249 40h1M0 41h1M15 41h1M20 41h7M36 41h1M38 41h1M40 41h1M42 41h1M44 41h1M50 41h1M53 41h9M65 41h1M68 41h6M75 41h1M77 41h1M79 41h2M98 41h9M108 41h1M110 41h3M124 41h1M131 41h19M151 41h1M153 41h1M155 41h1M165 41h4M170 41h1M172 41h1M182 41h4M194 41h1M196 41h5M209 41h1M213 41h2M226 41h3M230 41h1M232 41h1M242 41h7M0 42h6M10 42h6M20 42h7M36 42h9M50 42h1M53 42h9M65 42h1M67 42h1M69 42h1M73 42h7M97 42h6M105 42h2M108 42h5M131 42h3M138 42h4M143 42h2M150 42h6M165 42h8M194 42h1M196 42h4M213 42h2M225 42h7M242 42h4M5 43h1M10 43h1M21 43h6M33 43h2M36 43h9M46 43h2M51 43h2M54 43h8M65 43h3M72 43h3M77 43h3M97 43h4M104 43h3M110 43h4M130 43h2M138 43h7M164 43h4M195 43h1M197 43h2M213 43h2M225 43h4M241 43h4M5 44h1M10 44h1M22 44h4M33 44h2M46 44h2M55 44h7M65 44h2M72 44h2M79 44h1M97 44h2M104 44h2M111 44h4M130 44h2M138 44h2M143 44h3M164 44h4M194 44h1M196 44h1M199 44h1M213 44h2M225 44h4M241 44h4M5 45h1M10 45h1M33 45h15M56 45h5M78 45h2M112 45h3M143 45h3M165 45h2M192 45h2M195 45h1M197 45h2M200 45h1M213 45h2M225 45h3M241 45h4M5 46h1M10 46h1M34 46h14M192 46h1M194 46h1M199 46h2M5 47h6M33 47h15M192 47h3M3 48h4M9 48h4M171 48h1M212 48h1M3 49h4M9 49h4M18 49h4M26 49h4M170 49h1M213 49h1M3 50h4M9 50h3M18 50h4M26 50h4M37 50h5M86 50h5M107 50h9M140 50h9M170 50h1M213 50h1M1 51h14M18 51h4M26 51h2M29 51h1M36 51h3M41 51h2M85 51h2M89 51h3M106 51h1M112 51h1M143 51h1M149 51h1M171 51h12M201 51h12M225 51h1M236 51h1M243 51h1M254 51h1M1 52h14M18 52h4M26 52h4M35 52h3M42 52h1M85 52h1M90 52h3M105 52h1M111 52h1M144 52h1M150 52h1M163 52h1M173 52h4M180 52h1M182 52h3M199 52h3M203 52h1M205 52h1M207 52h4M220 52h1M224 52h14M242 52h14M1 53h2M6 53h4M13 53h2M22 53h4M35 53h21M71 53h22M104 53h23M129 53h8M138 53h14M161 53h17M179 53h8M197 53h26M224 53h15M241 53h15M1 54h2M6 54h4M13 54h2M22 54h4M33 54h24M71 54h24M97 54h30M129 54h30M167 54h21M196 54h21M226 54h5M233 54h4M243 54h4M249 54h5M1 55h2M6 55h4M13 55h2M20 55h8M35 55h22M71 55h22M102 55h25M129 55h25M161 55h8M170 55h18M196 55h11M208 55h15M230 55h1M232 55h1M234 55h3M243 55h2M247 55h1M249 55h1M1 56h14M21 56h7M35 56h22M71 56h22M103 56h1M109 56h1M112 56h2M118 56h9M129 56h9M142 56h2M146 56h1M152 56h1M166 56h5M174 56h1M181 56h1M184 56h3M197 56h3M202 56h1M209 56h1M213 56h2M216 56h2M232 56h6M242 56h7M1 57h2M4 57h1M10 57h2M13 57h2M20 57h8M35 57h1M37 57h2M41 57h3M47 57h10M71 57h10M84 57h3M89 57h2M92 57h1M103 57h1M110 57h1M113 57h1M117 57h3M121 57h5M130 57h5M136 57h3M142 57h1M145 57h1M152 57h1M182 57h6M196 57h6M235 57h3M242 57h3M1 58h2M4 58h2M10 58h2M13 58h2M20 58h2M23 58h5M37 58h1M40 58h1M43 58h2M47 58h3M78 58h3M83 58h2M87 58h1M90 58h1M103 58h1M111 58h3M116 58h3M124 58h2M130 58h2M137 58h3M142 58h3M152 58h1M184 58h5M195 58h5M235 58h4M241 58h4M1 59h2M4 59h8M13 59h2M20 59h2M26 59h2M38 59h2M45 59h3M80 59h3M88 59h2M116 59h2M138 59h2M185 59h4M195 59h4M236 59h3M241 59h3M1 60h2M4 60h8M13 60h2M20 60h1M26 60h2M186 60h2M196 60h2M1 61h2M13 61h2" />
<path stroke="#fffeff" d="M1 4h1M17 5h1M25 7h1M123 10h1M197 12h1M157 23h1M132 43h1M178 53h1" />
<path stroke="#fffffe" d="M30 5h1M69 6h1M197 13h1M213 27h1M54 30h1M254 35h1M243 36h1M107 42h1M78 44h1M33 46h1M28 51h1" />
<path stroke="#fdffff" d="M44 5h1M11 9h1M116 9h1M124 12h1M249 19h1M107 20h1M190 40h1M181 41h1M169 55h1M20 56h1M231 56h1" />
<path stroke="#fffdff" d="M13 13h1M2 23h1M234 38h1M237 39h1M146 40h1M12 50h1M178 52h1M56 53h1M137 53h1M5 57h1M22 58h1" />
<path stroke="#feffff" d="M52 16h1M1 24h1M51 37h1M53 37h1M184 39h1M207 55h1M215 56h1" />
<path stroke="#fffffd" d="M68 16h1M203 17h1M139 20h1M163 24h1M140 27h1M55 31h1M42 37h1M197 40h1M78 41h1M68 42h1M245 55h1M21 60h1" />
</svg>