<?xml version="1.0" encoding="iso-8859-1"?><svg version="1.1" id="Capa_1" xmlns="http://www.w3.org/2000/svg" xmlns:xlink="http://www.w3.org/1999/xlink" x="0px" y="0px"	 viewBox="0 0 512 512" style="enable-background:new 0 0 512 512;" xml:space="preserve"><g>	<g>		<path fill="white" d="M256,0C114.508,0,0,114.497,0,256c0,141.492,114.497,256,256,256c141.492,0,256-114.497,256-256			C512,114.508,397.503,0,256,0z M156.946,52.753c-7.747,21.099-14.25,42.547-19.499,64.295			c-15.341-4.661-30.432-10.25-45.243-16.762C110.958,80.583,132.812,64.54,156.946,52.753z M72.338,124.24			c19.171,8.878,38.791,16.3,58.802,22.253c-5.806,30.993-9.126,62.538-9.914,94.507H30.502			C33.265,198.559,47.728,158.39,72.338,124.24z M72.338,387.76C47.728,353.61,33.265,313.441,30.502,271h90.724			c0.788,31.969,4.108,63.514,9.914,94.507C111.129,371.46,91.51,378.882,72.338,387.76z M92.204,411.715			c14.811-6.513,29.901-12.102,45.243-16.762c5.25,21.748,11.752,43.196,19.499,64.295			C132.824,447.467,110.968,431.427,92.204,411.715z M241,481.498c-15.754-1.025-31.197-3.655-46.135-7.825			c-11.865-28.12-21.335-56.952-28.398-86.363c24.318-5.437,49.199-8.616,74.533-9.515V481.498z M241,347.777			c-27.448,0.907-54.405,4.307-80.751,10.175c-5.234-28.529-8.25-57.55-9.013-86.952H241V347.777z M241,241h-89.764			c0.763-29.402,3.779-58.423,9.013-86.952c26.346,5.868,53.303,9.268,80.751,10.175V241z M241,134.205			c-25.334-0.899-50.215-4.078-74.533-9.515C173.53,95.279,183,66.447,194.865,38.327c14.938-4.17,30.381-6.8,46.135-7.825V134.205z			 M439.662,124.24c24.61,34.15,39.073,74.319,41.836,116.76h-90.724c-0.788-31.969-4.108-63.514-9.914-94.507			C400.871,140.54,420.49,133.118,439.662,124.24z M419.796,100.285c-14.811,6.513-29.901,12.102-45.243,16.762			c-5.25-21.748-11.752-43.196-19.499-64.295C379.176,64.533,401.032,80.573,419.796,100.285z M271,30.502			c15.754,1.025,31.197,3.655,46.135,7.825C329,66.447,338.47,95.279,345.533,124.69c-24.318,5.437-49.199,8.616-74.533,9.515			V30.502z M271,164.223c27.448-0.907,54.405-4.307,80.751-10.175c5.234,28.529,8.25,57.55,9.013,86.952H271V164.223z			 M317.134,473.672c-14.937,4.171-30.38,6.801-46.134,7.826V377.795c25.334,0.899,50.215,4.078,74.533,9.515			C338.469,416.721,329,445.553,317.134,473.672z M271,347.777V271h89.764c-0.763,29.402-3.779,58.423-9.013,86.952			C325.405,352.084,298.448,348.684,271,347.777z M355.054,459.247c7.747-21.099,14.25-42.547,19.499-64.295			c15.341,4.661,30.432,10.25,45.243,16.762C401.042,431.417,379.188,447.46,355.054,459.247z M439.662,387.76			c-19.171-8.878-38.791-16.3-58.802-22.253c5.806-30.993,9.126-62.538,9.914-94.507h90.724			C478.735,313.441,464.272,353.61,439.662,387.76z"/>	</g></g></svg>