<?xml version="1.0" encoding="UTF-8" standalone="no"?>
<!-- Generator: Adobe Illustrator 25.2.0, SVG Export Plug-In . SVG Version: 6.00 Build 0)  -->
<svg version="1.1" id="Layer_1" x="0px" y="0px" viewBox="0 0 256 256" xml:space="preserve" width="256" height="256" xmlns:inkscape="http://www.inkscape.org/namespaces/inkscape" xmlns:sodipodi="http://sodipodi.sourceforge.net/DTD/sodipodi-0.dtd" xmlns="http://www.w3.org/2000/svg" xmlns:svg="http://www.w3.org/2000/svg">

<g id="g164" transform="translate(0, 40)"><g id="g14" transform="translate(-431.98,-279.66)">
	<path fill="white" class="st4" d="m 661.68,302.58 c -11.53,-13.13 -25.84,-19.69 -42.93,-19.69 -7.69,0 -15.17,2.07 -22.42,6.24 -7.27,4.16 -12.57,8.02 -15.87,11.53 -3.31,3.53 -6.13,6.89 -8.49,10.09 -10.67,-18.58 -26.91,-27.86 -48.7,-27.86 -14.09,0 -26.17,7.58 -36.2,22.75 0,-7.27 -1.82,-12.82 -5.44,-16.67 -3.64,-3.84 -11.44,-5.76 -23.38,-5.76 -11.96,0 -19.55,2.89 -22.75,8.66 -1.71,3 -2.73,5.71 -3.05,8.16 -0.31,2.45 -0.47,6.15 -0.47,11.06 v 112.78 c 0,5.13 0.16,8.87 0.47,11.22 0.33,2.35 1.24,5.13 2.73,8.33 2.98,5.76 11.22,8.66 24.68,8.66 13.46,0 21.78,-2.78 24.98,-8.35 1.71,-3.2 2.73,-6.02 3.04,-8.47 0.33,-2.45 0.49,-6.15 0.49,-11.06 v -56.71 c 0,-18.58 6.4,-27.88 19.22,-27.88 13.24,0 19.86,9.29 19.86,27.88 v 56.06 c 0,4.93 0.16,8.6 0.49,11.06 0.31,2.45 1.22,5.29 2.73,8.49 2.98,5.98 11.2,8.98 24.66,8.98 13.67,0 22,-2.89 25,-8.66 1.69,-3.2 2.71,-5.98 3.04,-8.33 0.33,-2.35 0.47,-6.09 0.47,-11.22 v -56.06 c 0,-8.98 1.35,-15.91 4.02,-20.84 2.65,-4.91 7.73,-7.36 15.22,-7.36 13.24,0 19.86,9.29 19.86,27.88 v 28.46 c 6.98,-7.66 17,-12.18 27.57,-12.18 11.16,0 21.49,4.89 28.49,13.18 v -29.13 c -0.02,-30.36 -5.79,-52.09 -17.32,-65.24 z"/>
	
</g><path fill="white" class="st4" d="m 247,127.04 c -5.27,-10.38 -16.07,-17.51 -28.49,-17.51 -11.75,0 -22.04,6.38 -27.57,15.86 -2.78,4.73 -4.36,10.24 -4.36,16.09 0,7.18 2.38,13.84 6.4,19.18 3.67,4.87 8.71,8.67 14.53,10.8 0.02,0.02 0.02,0.02 0.04,0.02 3.42,1.25 7.11,1.95 10.96,1.95 3.58,0 7.02,-0.6 10.24,-1.69 7.27,-2.45 13.38,-7.47 17.24,-13.98 2.85,-4.78 4.47,-10.35 4.47,-16.27 -0.01,-5.19 -1.24,-10.1 -3.46,-14.45 z m -28.5,30.42 c -8.8,0 -15.98,-7.16 -15.98,-15.98 0,-8.82 7.18,-15.98 15.98,-15.98 8.82,0 15.98,7.16 15.98,15.98 0.01,8.82 -7.16,15.98 -15.98,15.98 z"/></g>
</svg>