<?xml version="1.0" encoding="UTF-8"?>
<!DOCTYPE svg PUBLIC "-//W3C//DTD SVG 1.1//EN" "http://www.w3.org/Graphics/SVG/1.1/DTD/svg11.dtd">
<svg xmlns="http://www.w3.org/2000/svg" version="1.1" width="192px" height="192px" style="shape-rendering:geometricPrecision; text-rendering:geometricPrecision; image-rendering:optimizeQuality; fill-rule:evenodd; clip-rule:evenodd" xmlns:xlink="http://www.w3.org/1999/xlink">
<g><path style="opacity:0.922" fill="#fefffe" d="M 91.5,7.5 C 96.3708,7.19216 101.037,8.0255 105.5,10C 129.715,21.6845 152.548,35.5178 174,51.5C 175,53.1667 176,54.8333 177,56.5C 177.973,83.2289 177.64,109.896 176,136.5C 168.309,144.863 159.476,151.697 149.5,157C 139.5,162.667 129.5,168.333 119.5,174C 111.831,178.337 103.831,181.837 95.5,184.5C 88.8331,182.888 82.4997,180.388 76.5,177C 58.836,167.17 41.5026,156.837 24.5,146C 21.6667,143.167 18.8333,140.333 16,137.5C 14.1335,135.192 13.1335,132.525 13,129.5C 12.0291,104.77 12.3624,80.1038 14,55.5C 22.8442,46.6659 32.6775,39.1659 43.5,33C 58.9585,23.3494 74.9585,14.8494 91.5,7.5 Z M 93.5,20.5 C 114.561,28.0301 134.228,38.1967 152.5,51C 155.646,53.3116 158.646,55.8116 161.5,58.5C 162.157,70.1227 162.49,81.7894 162.5,93.5C 162.142,105.677 162.142,117.677 162.5,129.5C 159.03,135.135 154.363,139.635 148.5,143C 131.677,153.745 114.01,162.912 95.5,170.5C 72.5353,160.939 51.0353,148.939 31,134.5C 30.5814,133.328 29.9147,132.328 29,131.5C 28.8333,119.5 28.6667,107.5 28.5,95.5C 28.3514,82.7418 28.8514,70.0752 30,57.5C 49.868,42.9811 71.0347,30.6478 93.5,20.5 Z"/></g>
</svg>
