<?xml version="1.0" encoding="iso-8859-1"?><svg version="1.1" id="Layer_1" xmlns="http://www.w3.org/2000/svg" xmlns:xlink="http://www.w3.org/1999/xlink" x="0px" y="0px" viewBox="0 0 512 512" style="enable-background:new 0 0 512 512;" xml:space="preserve"><g> <g> <path fill="white" d="M256,0C114.509,0,0,114.496,0,256c0,141.489,114.496,256,256,256c141.491,0,256-114.496,256-256 C512,114.509,397.504,0,256,0z M248.425,375.819c-14.49,0-25.61-12.131-25.61-25.948c0-14.153,11.457-25.946,25.61-25.946 c14.154,0,25.946,11.794,25.946,25.947C274.371,363.687,262.914,375.819,248.425,375.819z M286.839,244.736 c-18.533,14.49-18.871,24.599-18.871,42.121c0,6.404-3.37,13.817-19.881,13.817c-13.817,0-18.533-5.055-18.533-22.577 c0-28.98,12.805-42.796,22.577-51.22c11.12-9.436,29.991-19.881,29.991-38.077c0-15.502-13.479-22.915-30.328-22.915 c-34.371,0-26.957,25.948-45.155,25.948c-9.098,0-20.218-6.067-20.218-19.208c0-18.196,20.892-45.155,66.384-45.155 c43.132,0,71.775,23.926,71.775,55.601S295.937,237.66,286.839,244.736z"/> </g></g></svg>