<?xml version="1.0" encoding="UTF-8"?>
<!DOCTYPE svg PUBLIC "-//W3C//DTD SVG 1.1//EN" "http://www.w3.org/Graphics/SVG/1.1/DTD/svg11.dtd">
<svg xmlns="http://www.w3.org/2000/svg" version="1.1" width="1248px" height="2160px" style="shape-rendering:geometricPrecision; text-rendering:geometricPrecision; image-rendering:optimizeQuality; fill-rule:evenodd; clip-rule:evenodd" xmlns:xlink="http://www.w3.org/1999/xlink">
<g><path style="opacity:0.992" fill="#fefffe" d="M 950.5,63.5 C 989.501,63.3333 1028.5,63.5 1067.5,64C 1086.2,65.3465 1104.87,66.8465 1123.5,68.5C 1125.13,67.2558 1126.13,67.7558 1126.5,70C 1126.06,71.9203 1125.4,73.7536 1124.5,75.5C 1113.43,85.2358 1103.43,95.9025 1094.5,107.5C 1063.87,150.428 1038.7,196.428 1019,245.5C 996.681,305.433 979.015,366.766 966,429.5C 949.75,511.671 939.75,594.338 936,677.5C 935.668,895.884 934.834,1113.72 933.5,1331C 934.435,1336.85 934.769,1343.18 934.5,1350C 932.82,1355.63 932.153,1361.46 932.5,1367.5C 937.003,1368.15 941.003,1369.99 944.5,1373C 951.916,1374.69 959.25,1376.69 966.5,1379C 973.138,1382.77 980.138,1385.77 987.5,1388C 991.342,1389.61 994.842,1391.78 998,1394.5C 998.767,1398.59 998.434,1402.59 997,1406.5C 989.836,1423.12 982.669,1439.29 975.5,1455C 973.864,1460.24 972.03,1465.41 970,1470.5C 954.36,1500.45 936.694,1529.12 917,1556.5C 889.837,1591.22 860.004,1623.72 827.5,1654C 816.418,1662.87 805.751,1672.21 795.5,1682C 744.112,1721.81 689.112,1755.14 630.5,1782C 627.223,1783.14 623.89,1783.98 620.5,1784.5C 619.808,1549.05 619.141,1313.72 618.5,1078.5C 604.264,1077.97 590.097,1078.64 576,1080.5C 569.957,1079.43 563.957,1079.76 558,1081.5C 554.936,1080.76 551.936,1080.43 549,1080.5C 547.378,1080.95 546.212,1081.95 545.5,1083.5C 546.189,1085.44 546.689,1087.44 547,1089.5C 547.167,1113.67 547.333,1137.83 547.5,1162C 547.412,1441.96 547.245,1725.13 547,2011.5C 546.79,2033.51 546.29,2055.51 545.5,2077.5C 551.491,2095.68 546.158,2100.18 529.5,2091C 513.765,2079.47 498.432,2067.47 483.5,2055C 444.33,2017.95 408.83,1978.11 377,1935.5C 314.801,1847.83 262.468,1756.16 220,1660.5C 217.069,1656.92 215.069,1652.92 214,1648.5C 204.63,1628.56 195.796,1608.06 187.5,1587C 187.848,1584.95 187.181,1582.95 185.5,1581C 185.833,1580.67 186.167,1580.33 186.5,1580C 182.607,1573.88 179.274,1567.54 176.5,1561C 176.833,1560.67 177.167,1560.33 177.5,1560C 175.003,1555.18 172.503,1550.35 170,1545.5C 168.419,1541.27 167.752,1536.94 168,1532.5C 176.677,1526.04 186.51,1521.87 197.5,1520C 200.328,1517.75 203.328,1515.75 206.5,1514C 214.941,1511.28 223.274,1508.28 231.5,1505C 232.143,1502.25 232.476,1499.42 232.5,1496.5C 232.069,1486.59 231.402,1476.76 230.5,1467C 230.243,1442.29 230.576,1418.12 231.5,1394.5C 230.845,1384.64 230.178,1374.8 229.5,1365C 229.765,1273.15 229.765,1182.48 229.5,1093C 228.833,1085 228.167,1077 227.5,1069C 227.466,1056.48 227.8,1043.81 228.5,1031C 227.833,1028.33 227.167,1025.67 226.5,1023C 226.492,1012.16 226.826,1001.82 227.5,992C 226.833,988.333 226.167,984.667 225.5,981C 226.369,966.963 226.702,953.63 226.5,941C 225.833,936.333 225.167,931.667 224.5,927C 224.512,837.601 224.512,750.934 224.5,667C 223.833,653 223.167,639 222.5,625C 222.972,607.431 222.972,590.931 222.5,575.5C 221.451,571.735 220.118,568.068 218.5,564.5C 208.802,549.614 197.135,536.447 183.5,525C 167.671,513.156 151.337,502.156 134.5,492C 116.572,483.371 98.572,474.704 80.5,466C 74.9739,464.046 69.3073,462.713 63.5,462C 61.6734,461.101 60.34,459.767 59.5,458C 65.1078,453.743 70.7745,449.41 76.5,445C 96.3259,425.507 117.659,407.84 140.5,392C 149.533,382.854 159.366,375.687 170,370.5C 170.956,369.421 171.789,368.255 172.5,367C 210.042,341.238 247.042,317.238 283.5,295C 290.358,292.774 296.025,289.441 300.5,285C 370.424,245.545 443.424,209.545 519.5,177C 528.124,173.094 537.124,170.594 546.5,169.5C 545.18,192.506 545.346,215.506 547,238.5C 547.457,342.404 548.29,446.237 549.5,550C 549.074,573.628 548.74,596.295 548.5,618C 549.331,683.096 549.831,748.263 550,813.5C 551.062,814.097 552.228,814.43 553.5,814.5C 575.232,811.686 596.899,810.186 618.5,810C 619.85,805.642 620.517,801.142 620.5,796.5C 620.725,718.454 620.391,639.954 619.5,561C 620.801,491.004 621.801,421.004 622.5,351C 622.559,286.39 622.559,219.89 622.5,151.5C 624.635,145.532 628.635,141.365 634.5,139C 649.249,133.786 663.582,127.786 677.5,121C 720.224,105.354 763.557,92.6873 807.5,83C 836.388,77.6005 864.888,73.1005 893,69.5C 912.189,66.7082 931.356,64.7082 950.5,63.5 Z"/></g>
</svg>
